<svg viewBox="0 0 100 100" xmlns="http://www.w3.org/2000/svg"><path d="M82,66.5Q83,83,66.5,86.5Q50,90,35,85Q20,80,11.5,65Q3,50,10.5,34Q18,18,34,14Q50,10,64.5,15.5Q79,21,80,35.5Q81,50,82,66.5Z" stroke="none" stroke-width="0" fill="#c2afbe"/><path d="M81.5,63.5Q77,77,63.5,85.5Q50,94,33.5,88.5Q17,83,12,66.5Q7,50,16.5,38Q26,26,38,21Q50,16,63.5,19.5Q77,23,81.5,36.5Q86,50,81.5,63.5Z" stroke="none" stroke-width="0" fill="#c2afbd"/><path d="M85.5,62Q74,74,62,80.5Q50,87,38,80.5Q26,74,20,62Q14,50,21,39Q28,28,39,23.5Q50,19,61,23.5Q72,28,84.5,39Q97,50,85.5,62Z" stroke="none" stroke-width="0" fill="#c2afbc"/><path d="M86,61.5Q73,73,61.5,83Q50,93,37,84.5Q24,76,12,63Q0,50,8.5,33.5Q17,17,33.5,17.5Q50,18,65.5,18.5Q81,19,90,34.5Q99,50,86,61.5Z" stroke="none" stroke-width="0" fill="#c2afbb"/><path d="M85.5,66.5Q83,83,66.5,83.5Q50,84,32.5,84.5Q15,85,11.5,67.5Q8,50,12.5,33.5Q17,17,33.5,12Q50,7,62,16.5Q74,26,81,38Q88,50,85.5,66.5Z" stroke="none" stroke-width="0" fill="#c2afba"/><path d="M87,66Q82,82,66,88.5Q50,95,35,87.5Q20,80,11,65Q2,50,10,34Q18,18,34,14.5Q50,11,62,18.5Q74,26,83,38Q92,50,87,66Z" stroke="none" stroke-width="0" fill="#c2afb9"/><path d="M81.5,60.5Q71,71,60.5,79.5Q50,88,34.5,84.5Q19,81,10,65.5Q1,50,12,36.5Q23,23,36.5,13.5Q50,4,67,10Q84,16,88,33Q92,50,81.5,60.5Z" stroke="none" stroke-width="0" fill="#c2afb8"/><path d="M84,64.5Q79,79,64.5,87Q50,95,38.5,84Q27,73,16.5,61.5Q6,50,11.5,33.5Q17,17,33.5,18Q50,19,65.5,19Q81,19,85,34.5Q89,50,84,64.5Z" stroke="none" stroke-width="0" fill="#c2afb7"/><path d="M83,62.5Q75,75,62.5,78Q50,81,39,76.5Q28,72,20.5,61Q13,50,20,38.5Q27,27,38.5,16Q50,5,67,10.5Q84,16,87.5,33Q91,50,83,62.5Z" stroke="none" stroke-width="0" fill="#c2afb6"/><path d="M85.5,62.5Q75,75,62.5,85.5Q50,96,39,84Q28,72,21.5,61Q15,50,15,32.5Q15,15,32.5,9.5Q50,4,61,16Q72,28,84,39Q96,50,85.5,62.5Z" stroke="none" stroke-width="0" fill="#c2afb5"/><path d="M83.5,66.5Q83,83,66.5,84.5Q50,86,39.5,78.5Q29,71,16,60.5Q3,50,12.5,36Q22,22,36,13.5Q50,5,63.5,14Q77,23,80.5,36.5Q84,50,83.5,66.5Z" stroke="none" stroke-width="0" fill="#c2afb4"/><path d="M86.5,62.5Q75,75,62.5,78.5Q50,82,38,78Q26,74,19,62Q12,50,18,37Q24,24,37,19Q50,14,67,15Q84,16,91,33Q98,50,86.5,62.5Z" stroke="none" stroke-width="0" fill="#c2afb3"/><path d="M90.5,67Q84,84,67,83Q50,82,33,83Q16,84,14.5,67Q13,50,17,35.5Q21,21,35.5,13Q50,5,62,15.5Q74,26,85.5,38Q97,50,90.5,67Z" stroke="none" stroke-width="0" fill="#c2afb2"/><path d="M85,62Q74,74,62,85Q50,96,38,85Q26,74,15,62Q4,50,13.5,36.5Q23,23,36.5,11.5Q50,0,62.5,12.5Q75,25,85.5,37.5Q96,50,85,62Z" stroke="none" stroke-width="0" fill="#c2afb1"/><path d="M80,62Q74,74,62,86.5Q50,99,38,86.5Q26,74,18,62Q10,50,17.5,37.5Q25,25,37.5,14.5Q50,4,64,13Q78,22,82,36Q86,50,80,62Z" stroke="none" stroke-width="0" fill="#c2afb0"/><path d="M83.5,66Q82,82,66,87.5Q50,93,37.5,84Q25,75,22,62.5Q19,50,23.5,39Q28,28,39,23.5Q50,19,62.5,22Q75,25,80,37.5Q85,50,83.5,66Z" stroke="none" stroke-width="0" fill="#c2afaf"/><path d="M83.5,63.5Q77,77,63.5,87.5Q50,98,33.5,90.5Q17,83,17.5,66.5Q18,50,18.5,34.5Q19,19,34.5,12.5Q50,6,65.5,12.5Q81,19,85.5,34.5Q90,50,83.5,63.5Z" stroke="none" stroke-width="0" fill="#c2afae"/><path d="M79.5,62.5Q75,75,62.5,79.5Q50,84,39,78Q28,72,14,61Q0,50,10.5,35.5Q21,21,35.5,20Q50,19,62,22.5Q74,26,79,38Q84,50,79.5,62.5Z" stroke="none" stroke-width="0" fill="#c2afad"/><path d="M82.5,66.5Q83,83,66.5,89Q50,95,35,87.5Q20,80,15,65Q10,50,13,33Q16,16,33,13.5Q50,11,63,17.5Q76,24,79,37Q82,50,82.5,66.5Z" stroke="none" stroke-width="0" fill="#c2afac"/><path d="M85.5,61Q72,72,61,79Q50,86,35,83Q20,80,14,65Q8,50,15,36Q22,22,36,17Q50,12,65,16Q80,20,89.5,35Q99,50,85.5,61Z" stroke="none" stroke-width="0" fill="#c2afab"/><path d="M79.5,64Q78,78,64,79.5Q50,81,38,77.5Q26,74,17,62Q8,50,14.5,35.5Q21,21,35.5,17Q50,13,62.5,19Q75,25,78,37.5Q81,50,79.5,64Z" stroke="none" stroke-width="0" fill="#c2afaa"/><path d="M81.5,64.5Q79,79,64.5,86.5Q50,94,35.5,86.5Q21,79,15.5,64.5Q10,50,17,37Q24,24,37,12.5Q50,1,64,11.5Q78,22,81,36Q84,50,81.5,64.5Z" stroke="none" stroke-width="0" fill="#c2afa9"/><path d="M87,65.5Q81,81,65.5,84Q50,87,34,84.5Q18,82,9,66Q0,50,8.5,33.5Q17,17,33.5,12Q50,7,62,16.5Q74,26,83.5,38Q93,50,87,65.5Z" stroke="none" stroke-width="0" fill="#c2afa8"/><path d="M86,61.5Q73,73,61.5,84.5Q50,96,32.5,90.5Q15,85,8,67.5Q1,50,9,33.5Q17,17,33.5,9Q50,1,66,9.5Q82,18,90.5,34Q99,50,86,61.5Z" stroke="none" stroke-width="0" fill="#c2afa7"/><path d="M81.5,62Q74,74,62,81.5Q50,89,34,85.5Q18,82,13,66Q8,50,18.5,39.5Q29,29,39.5,19Q50,9,65,14.5Q80,20,84.5,35Q89,50,81.5,62Z" stroke="none" stroke-width="0" fill="#c2afa6"/><path d="M87,67.5Q85,85,67.5,88.5Q50,92,36,85Q22,78,13.5,64Q5,50,17,39.5Q29,29,39.5,16Q50,3,62.5,14Q75,25,82,37.5Q89,50,87,67.5Z" stroke="none" stroke-width="0" fill="#c2afa5"/><path d="M80.5,60.5Q71,71,60.5,84.5Q50,98,33,91Q16,84,14.5,67Q13,50,16,34.5Q19,19,34.5,13Q50,7,66,12.5Q82,18,86,34Q90,50,80.5,60.5Z" stroke="none" stroke-width="0" fill="#c2afa4"/><path d="M83,67.5Q85,85,67.5,88.5Q50,92,35.5,85.5Q21,79,16.5,64.5Q12,50,19,38Q26,26,38,18.5Q50,11,66.5,14Q83,17,82,33.5Q81,50,83,67.5Z" stroke="none" stroke-width="0" fill="#c2afa3"/><path d="M81.5,62.5Q75,75,62.5,81.5Q50,88,34,85Q18,82,19,66Q20,50,24,39Q28,28,39,18Q50,8,62,17Q74,26,81,38Q88,50,81.5,62.5Z" stroke="none" stroke-width="0" fill="#c2afa2"/><path d="M80.5,61.5Q73,73,61.5,77Q50,81,34,81.5Q18,82,14.5,66Q11,50,17,36.5Q23,23,36.5,13.5Q50,4,65.5,11.5Q81,19,84.5,34.5Q88,50,80.5,61.5Z" stroke="none" stroke-width="0" fill="#c2afa1"/><path d="M88,64Q78,78,64,85.5Q50,93,38.5,83Q27,73,17,61.5Q7,50,13.5,35Q20,20,35,18Q50,16,66,17Q82,18,90,34Q98,50,88,64Z" stroke="none" stroke-width="0" fill="#c2afa0"/><path d="M81.5,65.5Q81,81,65.5,84.5Q50,88,32.5,86.5Q15,85,9,67.5Q3,50,13,36.5Q23,23,36.5,17Q50,11,65,15.5Q80,20,81,35Q82,50,81.5,65.5Z" stroke="none" stroke-width="0" fill="#c2af9f"/><path d="M82,61.5Q73,73,61.5,85Q50,97,38,85.5Q26,74,13.5,62Q1,50,14.5,39Q28,28,39,16Q50,4,62,15Q74,26,82.5,38Q91,50,82,61.5Z" stroke="none" stroke-width="0" fill="#c2af9e"/><path d="M78.5,61Q72,72,61,79Q50,86,33,85Q16,84,9.5,67Q3,50,11.5,35Q20,20,35,11Q50,2,66.5,9.5Q83,17,84,33.5Q85,50,78.5,61Z" stroke="none" stroke-width="0" fill="#c2af9d"/><path d="M89,67Q84,84,67,85.5Q50,87,37.5,81Q25,75,22,62.5Q19,50,19,34.5Q19,19,34.5,15.5Q50,12,62,19Q74,26,84,38Q94,50,89,67Z" stroke="none" stroke-width="0" fill="#c2af9c"/><path d="M82,60.5Q71,71,60.5,83Q50,95,38,84.5Q26,74,13.5,62Q1,50,9.5,34Q18,18,34,9.5Q50,1,62.5,13Q75,25,84,37.5Q93,50,82,60.5Z" stroke="none" stroke-width="0" fill="#c2af9b"/><path d="M80.5,64Q78,78,64,86.5Q50,95,37.5,85Q25,75,17.5,62.5Q10,50,12.5,32.5Q15,15,32.5,14Q50,13,62.5,19Q75,25,79,37.5Q83,50,80.5,64Z" stroke="none" stroke-width="0" fill="#c2af9a"/><path d="M82.5,66.5Q83,83,66.5,86Q50,89,38.5,81Q27,73,16,61.5Q5,50,17,39.5Q29,29,39.5,16.5Q50,4,60.5,16.5Q71,29,76.5,39.5Q82,50,82.5,66.5Z" stroke="none" stroke-width="0" fill="#c2af99"/><path d="M85,63Q76,76,63,88Q50,100,39,86Q28,72,14,61Q0,50,11.5,36.5Q23,23,36.5,11.5Q50,0,65.5,9.5Q81,19,87.5,34.5Q94,50,85,63Z" stroke="none" stroke-width="0" fill="#c2af98"/><path d="M83,64.5Q79,79,64.5,83.5Q50,88,35.5,83.5Q21,79,18,64.5Q15,50,16.5,34Q18,18,34,12.5Q50,7,65.5,13Q81,19,84,34.5Q87,50,83,64.5Z" stroke="none" stroke-width="0" fill="#c2af97"/><path d="M82.5,64Q78,78,64,88Q50,98,39,85Q28,72,16,61Q4,50,11.5,34.5Q19,19,34.5,19Q50,19,62,22.5Q74,26,80.5,38Q87,50,82.5,64Z" stroke="none" stroke-width="0" fill="#c2af96"/><path d="M87,65Q80,80,65,85.5Q50,91,33.5,87Q17,83,13.5,66.5Q10,50,18.5,38.5Q27,27,38.5,19.5Q50,12,67,14Q84,16,89,33Q94,50,87,65Z" stroke="none" stroke-width="0" fill="#c2af95"/><path d="M82,66Q82,82,66,82.5Q50,83,33,83.5Q16,84,16,67Q16,50,17.5,34.5Q19,19,34.5,11.5Q50,4,66.5,10.5Q83,17,82.5,33.5Q82,50,82,66Z" stroke="none" stroke-width="0" fill="#c2af94"/><path d="M87.5,65Q80,80,65,83Q50,86,38.5,79.5Q27,73,18,61.5Q9,50,12,32.5Q15,15,32.5,17.5Q50,20,66,19Q82,18,88.5,34Q95,50,87.5,65Z" stroke="none" stroke-width="0" fill="#c2af93"/><path d="M81.5,62.5Q75,75,62.5,86Q50,97,35.5,88Q21,79,14.5,64.5Q8,50,12,33Q16,16,33,14Q50,12,64.5,16.5Q79,21,83.5,35.5Q88,50,81.5,62.5Z" stroke="none" stroke-width="0" fill="#c2af92"/><path d="M89,67Q84,84,67,92Q50,100,34.5,90.5Q19,81,15.5,65.5Q12,50,17.5,36.5Q23,23,36.5,17.5Q50,12,63.5,17.5Q77,23,85.5,36.5Q94,50,89,67Z" stroke="none" stroke-width="0" fill="#c2af91"/><path d="M86.5,64.5Q79,79,64.5,83.5Q50,88,37,82Q24,76,14.5,63Q5,50,13,35.5Q21,21,35.5,11Q50,1,64.5,11Q79,21,86.5,35.5Q94,50,86.5,64.5Z" stroke="none" stroke-width="0" fill="#c2af90"/><path d="M88.5,65.5Q81,81,65.5,85Q50,89,34,85.5Q18,82,18.5,66Q19,50,23,38.5Q27,27,38.5,23.5Q50,20,67.5,17.5Q85,15,90.5,32.5Q96,50,88.5,65.5Z" stroke="none" stroke-width="0" fill="#c2af8f"/><path d="M82.5,65.5Q81,81,65.5,85Q50,89,33.5,86Q17,83,14.5,66.5Q12,50,18,37Q24,24,37,14Q50,4,63.5,13.5Q77,23,80.5,36.5Q84,50,82.5,65.5Z" stroke="none" stroke-width="0" fill="#c2af8e"/><path d="M87,66.5Q83,83,66.5,86Q50,89,39,80.5Q28,72,14.5,61Q1,50,13,37.5Q25,25,37.5,17.5Q50,10,64,16Q78,22,84.5,36Q91,50,87,66.5Z" stroke="none" stroke-width="0" fill="#c2af8d"/><path d="M86.5,67.5Q85,85,67.5,92.5Q50,100,36,89Q22,78,12,64Q2,50,9,33Q16,16,33,8.5Q50,1,62,13.5Q74,26,81,38Q88,50,86.5,67.5Z" stroke="none" stroke-width="0" fill="#c2af8c"/><path d="M88.5,66Q82,82,66,81.5Q50,81,33,82.5Q16,84,17.5,67Q19,50,20,35.5Q21,21,35.5,12.5Q50,4,61,16Q72,28,83.5,39Q95,50,88.5,66Z" stroke="none" stroke-width="0" fill="#c2af8b"/><path d="M81.5,62.5Q75,75,62.5,83.5Q50,92,36.5,84.5Q23,77,14,63.5Q5,50,10.5,33Q16,16,33,10Q50,4,61.5,15.5Q73,27,80.5,38.5Q88,50,81.5,62.5Z" stroke="none" stroke-width="0" fill="#c2af8a"/><path d="M88.5,64.5Q79,79,64.5,88.5Q50,98,39,85Q28,72,20,61Q12,50,17.5,36.5Q23,23,36.5,20.5Q50,18,63,21Q76,24,87,37Q98,50,88.5,64.5Z" stroke="none" stroke-width="0" fill="#c2af89"/><path d="M82.5,65.5Q81,81,65.5,82Q50,83,37,79.5Q24,76,22,63Q20,50,22.5,37.5Q25,25,37.5,22.5Q50,20,67,18Q84,16,84,33Q84,50,82.5,65.5Z" stroke="none" stroke-width="0" fill="#c2af88"/><path d="M87.5,65.5Q81,81,65.5,84.5Q50,88,34,85Q18,82,11,66Q4,50,11.5,34.5Q19,19,34.5,16Q50,13,66,15.5Q82,18,88,34Q94,50,87.5,65.5Z" stroke="none" stroke-width="0" fill="#c2af87"/><path d="M79.5,61Q72,72,61,78.5Q50,85,37.5,80Q25,75,19,62.5Q13,50,14.5,33Q16,16,33,10Q50,4,64.5,12.5Q79,21,83,35.5Q87,50,79.5,61Z" stroke="none" stroke-width="0" fill="#c2af86"/><path d="M87,65.5Q81,81,65.5,81Q50,81,38.5,77Q27,73,20,61.5Q13,50,16,34.5Q19,19,34.5,16.5Q50,14,66,16Q82,18,87.5,34Q93,50,87,65.5Z" stroke="none" stroke-width="0" fill="#c2af85"/><path d="M83,62Q74,74,62,80.5Q50,87,38,80.5Q26,74,19,62Q12,50,18,37Q24,24,37,15.5Q50,7,64,14.5Q78,22,85,36Q92,50,83,62Z" stroke="none" stroke-width="0" fill="#c2af84"/><path d="M82.5,63.5Q77,77,63.5,82.5Q50,88,36.5,82.5Q23,77,14.5,63.5Q6,50,16.5,38.5Q27,27,38.5,16Q50,5,64,13.5Q78,22,83,36Q88,50,82.5,63.5Z" stroke="none" stroke-width="0" fill="#c2af83"/><path d="M87.5,63Q76,76,63,80Q50,84,36,81Q22,78,17.5,64Q13,50,17,35.5Q21,21,35.5,15Q50,9,66,13.5Q82,18,90.5,34Q99,50,87.5,63Z" stroke="none" stroke-width="0" fill="#c2af82"/><path d="M91,66.5Q83,83,66.5,88Q50,93,35.5,86Q21,79,17.5,64.5Q14,50,17.5,35.5Q21,21,35.5,16.5Q50,12,64.5,16.5Q79,21,89,35.5Q99,50,91,66.5Z" stroke="none" stroke-width="0" fill="#c2af81"/><path d="M82,63Q76,76,63,79Q50,82,33,83Q16,84,17.5,67Q19,50,17.5,33Q16,16,33,14Q50,12,62,19Q74,26,81,38Q88,50,82,63Z" stroke="none" stroke-width="0" fill="#c2af80"/><path d="M84.5,65.5Q81,81,65.5,86Q50,91,37,83.5Q24,76,21,63Q18,50,19.5,35.5Q21,21,35.5,15Q50,9,65.5,14Q81,19,84.5,34.5Q88,50,84.5,65.5Z" stroke="none" stroke-width="0" fill="#c2af7f"/><path d="M85,61Q72,72,61,82Q50,92,34.5,86.5Q19,81,14,65.5Q9,50,18,38.5Q27,27,38.5,18.5Q50,10,62.5,17.5Q75,25,86.5,37.5Q98,50,85,61Z" stroke="none" stroke-width="0" fill="#c2af7e"/><path d="M84,61.5Q73,73,61.5,83.5Q50,94,34.5,87.5Q19,81,11,65.5Q3,50,11,34.5Q19,19,34.5,16Q50,13,61,20.5Q72,28,83.5,39Q95,50,84,61.5Z" stroke="none" stroke-width="0" fill="#c2af7d"/><path d="M85.5,62Q74,74,62,83Q50,92,34.5,86.5Q19,81,10,65.5Q1,50,8.5,33Q16,16,33,11.5Q50,7,67,11.5Q84,16,90.5,33Q97,50,85.5,62Z" stroke="none" stroke-width="0" fill="#c2af7c"/><path d="M86,64Q78,78,64,82Q50,86,36.5,81.5Q23,77,13.5,63.5Q4,50,16.5,39.5Q29,29,39.5,19Q50,9,61,18.5Q72,28,83,39Q94,50,86,64Z" stroke="none" stroke-width="0" fill="#c2af7b"/><path d="M87,66Q82,82,66,88.5Q50,95,35,87.5Q20,80,11,65Q2,50,10,34Q18,18,34,14.5Q50,11,62,18.5Q74,26,83,38Q92,50,87,66Z" stroke="none" stroke-width="0" fill="#c2af7a"/><path d="M80,61Q72,72,61,82Q50,92,37,84Q24,76,18,63Q12,50,19,38Q26,26,38,16Q50,6,67.5,10.5Q85,15,86.5,32.5Q88,50,80,61Z" stroke="none" stroke-width="0" fill="#c2af79"/><path d="M87.5,63Q76,76,63,87.5Q50,99,37.5,87Q25,75,17,62.5Q9,50,17.5,38Q26,26,38,14.5Q50,3,62.5,14Q75,25,87,37.5Q99,50,87.5,63Z" stroke="none" stroke-width="0" fill="#c2af78"/><path d="M82.5,65Q80,80,65,85.5Q50,91,37.5,83Q25,75,15,62.5Q5,50,10,32.5Q15,15,32.5,10Q50,5,64,13.5Q78,22,81.5,36Q85,50,82.5,65Z" stroke="none" stroke-width="0" fill="#c2af77"/><path d="M89.5,65.5Q81,81,65.5,84.5Q50,88,37,82Q24,76,17,63Q10,50,18.5,38.5Q27,27,38.5,21Q50,15,64,18.5Q78,22,88,36Q98,50,89.5,65.5Z" stroke="none" stroke-width="0" fill="#c2af76"/><path d="M81.5,63.5Q77,77,63.5,79.5Q50,82,32.5,83.5Q15,85,13.5,67.5Q12,50,19,38Q26,26,38,17Q50,8,67,12Q84,16,85,33Q86,50,81.5,63.5Z" stroke="none" stroke-width="0" fill="#c2af75"/><path d="M87.5,67Q84,84,67,88Q50,92,35,86Q20,80,18.5,65Q17,50,18.5,35Q20,20,35,19Q50,18,61,23Q72,28,81.5,39Q91,50,87.5,67Z" stroke="none" stroke-width="0" fill="#c2af74"/><path d="M78,61Q72,72,61,83.5Q50,95,38.5,84Q27,73,23.5,61.5Q20,50,20.5,35.5Q21,21,35.5,12Q50,3,63,13.5Q76,24,80,37Q84,50,78,61Z" stroke="none" stroke-width="0" fill="#c2af73"/><path d="M83,67Q84,84,67,86.5Q50,89,35,84.5Q20,80,15,65Q10,50,15,35Q20,20,35,20Q50,20,62,23Q74,26,78,38Q82,50,83,67Z" stroke="none" stroke-width="0" fill="#c2af72"/><path d="M81,63Q76,76,63,80.5Q50,85,34.5,83Q19,81,12.5,65.5Q6,50,14,36Q22,22,36,15.5Q50,9,63.5,16Q77,23,81.5,36.5Q86,50,81,63Z" stroke="none" stroke-width="0" fill="#c2af71"/><path d="M85,65Q80,80,65,85Q50,90,34,86Q18,82,12.5,66Q7,50,13,34.5Q19,19,34.5,18Q50,17,62,21.5Q74,26,82,38Q90,50,85,65Z" stroke="none" stroke-width="0" fill="#c2af70"/><path d="M90.5,65.5Q81,81,65.5,85Q50,89,33,86.5Q16,84,9,67Q2,50,13.5,37.5Q25,25,37.5,22Q50,19,61,23.5Q72,28,86,39Q100,50,90.5,65.5Z" stroke="none" stroke-width="0" fill="#c2af6f"/><path d="M89,67.5Q85,85,67.5,91.5Q50,98,33,91Q16,84,9.5,67Q3,50,15.5,39Q28,28,39,18.5Q50,9,64.5,15Q79,21,86,35.5Q93,50,89,67.5Z" stroke="none" stroke-width="0" fill="#c2af6e"/><path d="M79.5,63.5Q77,77,63.5,88.5Q50,100,34,91Q18,82,11,66Q4,50,11,34Q18,18,34,13Q50,8,66,13Q82,18,82,34Q82,50,79.5,63.5Z" stroke="none" stroke-width="0" fill="#c2af6d"/></svg>